# xmcd CD database file
#
# Track frame offsets:
#	150
#	14568
#	32004
#	59865
#	77793
#	90580
#	110847
#	133277
#	152910
#	157955
#	167112
#	189919
#	209414
#	229727
#	241837
#	246588
#	258096
#	288583
#	301787
#
# Disc length: 4528 seconds
#
# Revision: 0
# Processed by: cddbd v1.5.2PL0 Copyright (c) Steve Scherf et al.
# Submitted via: Feurio! 1.68 - http://www.feurio.com
#
DISCID=0d11ae13
DTITLE=Taj Mahal - Oooh So Good'n Blues | Recycling The Blues and Other Related 
DTITLE=Stuff
DYEAR=2007
DGENRE=
TTITLE0=Buck Dancer's Choice
TTITLE1=Little Red Hen
TTITLE2=Oh Mama Don't You Know
TTITLE3=Frankie And Albert
TTITLE4=Railroad Bill
TTITLE5=Dust My Broom
TTITLE6=Built For Comfort
TTITLE7=Teacup's Jazzy Blues Tune
TTITLE8=Conch (Introduction)
TTITLE9=Kalimba
TTITLE10=Bound To Love Me Some
TTITLE11=Ricochet
TTITLE12=A Free Song (Rise Up Children Shake The Devil Out Of Your Soul)
TTITLE13=Corinna
TTITLE14=Conch (Close)
TTITLE15=Cakewalk Into Town
TTITLE16=Sweet Home Chicago
TTITLE17=Texas Woman Blues
TTITLE18=Gitano Negro
EXTD=#01-08 Oooh So Good'n Blues (1973)\r\n#09-19 Recycling The Blues and Other 
EXTD=Related Stuff (1972)
EXTT0=
EXTT1=
EXTT2=
EXTT3=
EXTT4=
EXTT5=
EXTT6=
EXTT7=
EXTT8=
EXTT9=
EXTT10=
EXTT11=
EXTT12=
EXTT13=
EXTT14=
EXTT15=
EXTT16=
EXTT17=
EXTT18=
PLAYORDER=
